<?xml version="1.0" encoding="UTF-8" standalone="no"?>
<!-- Created with Inkscape (http://www.inkscape.org/) -->

<svg
   version="1.1"
   id="svg228"
   width="432"
   height="432"
   viewBox="0 0 432 432"
   xmlns="http://www.w3.org/2000/svg"
   xmlns:svg="http://www.w3.org/2000/svg">
  <defs
     id="defs232" />
  <g
     id="g234">
    <rect
       style="fill:#000000;fill-opacity:1;stroke-width:0.942469;stroke-dasharray:none"
       id="rect1892"
       width="300"
       height="300"
       x="156.86424"
       y="-147.46648"
       transform="rotate(45)" />
    <path
       id="path1482"
       style="fill:#ff0000;fill-opacity:1;stroke-width:1.2078"
       d="m 112.27154,184.53723 a 30.790877,30.95083 0 0 0 -30.791022,30.95215 30.790877,30.95083 0 0 0 30.791022,30.9497 30.790877,30.95083 0 0 0 30.79101,-30.9497 30.790877,30.95083 0 0 0 -30.79101,-30.95215 z m 0,9.83643 a 21.033766,21.113746 0 0 1 21.03514,21.11572 21.033766,21.113746 0 0 1 -21.03514,21.11328 21.033766,21.113746 0 0 1 -21.03272,-21.11328 21.033766,21.113746 0 0 1 21.03272,-21.11572 z" />
    <path
       style="fill:#ffff00;fill-opacity:1;stroke-width:1.12688;stroke-dasharray:none"
       d="m 157.11619,186.4488 27.24232,11.84073 28.62458,-11.84073 0.0579,57.84188 h -8.812 l -0.63356,-43.57382 -18.89106,7.22284 -18.89109,-6.80841 0.28797,43.39621 -9.27275,-0.0591 0.34557,-57.78266"
       id="path1554" />
    <path
       style="fill:#00ff00;fill-opacity:1;stroke-width:1.12906;stroke-dasharray:none"
       d="m 282.68938,186.57222 -53.13616,-0.16596 0.41255,57.74891 53.05366,0.41488 -0.49507,-9.37591 -42.98748,0.24891 -0.33005,-15.01804 33.41638,0.24893 -0.0825,-9.62481 h -33.33388 l 0.16503,-14.76914 43.23501,-0.16593 z"
       id="path1619" />
    <path
       style="fill:#0000ff;fill-opacity:1;stroke-width:1.12046;stroke-dasharray:none"
       d="m 300.29867,244.57554 -0.24512,-58.17477 52.94431,0.4126 -0.40852,57.51463 h -8.66064 l -0.24511,-48.19017 -34.56087,0.41258 v 47.4475 l -8.82405,0.24755"
       id="path1621" />
  </g>
</svg>
