<?xml version="1.0" encoding="UTF-8" standalone="no"?>
<!-- Created with Inkscape (http://www.inkscape.org/) -->

<svg
   version="1.1"
   id="svg228"
   width="432"
   height="432"
   viewBox="0 0 432 432"
   xmlns:xlink="http://www.w3.org/1999/xlink"
   xmlns="http://www.w3.org/2000/svg"
   xmlns:svg="http://www.w3.org/2000/svg">
  <defs
     id="defs232">
    <linearGradient
       id="linearGradient1084">
      <stop
         style="stop-color:#ff0000;stop-opacity:1;"
         offset="0"
         id="stop1080" />
      <stop
         style="stop-color:#ff2b00;stop-opacity:1;"
         offset="0.10563781"
         id="stop1088" />
      <stop
         style="stop-color:#ffaa00;stop-opacity:1;"
         offset="0.22868468"
         id="stop1104" />
      <stop
         style="stop-color:#ffea00;stop-opacity:1;"
         offset="0.34117845"
         id="stop1090" />
      <stop
         style="stop-color:#a9f400;stop-opacity:1;"
         offset="0.44319478"
         id="stop1106" />
      <stop
         style="stop-color:#54ff00;stop-opacity:1;"
         offset="0.54430348"
         id="stop1098" />
      <stop
         style="stop-color:#00d6c5;stop-opacity:1;"
         offset="0.64034915"
         id="stop1100" />
      <stop
         style="stop-color:#1681f3;stop-opacity:1;"
         offset="0.73275775"
         id="stop1108" />
      <stop
         style="stop-color:#2142f9;stop-opacity:1;"
         offset="0.83188778"
         id="stop1114" />
      <stop
         style="stop-color:#3d00fb;stop-opacity:1;"
         offset="0.92800355"
         id="stop1110" />
      <stop
         style="stop-color:#3600b8;stop-opacity:1;"
         offset="1"
         id="stop1112" />
    </linearGradient>
    <linearGradient
       xlink:href="#linearGradient1084"
       id="linearGradient2852"
       gradientTransform="matrix(2.0943316,0,0,0.47747931,-5.9177976,1.6139279)"
       x1="38.905239"
       y1="386.4819"
       x2="168.54926"
       y2="386.4819"
       gradientUnits="userSpaceOnUse" />
  </defs>
  <g
     id="g234">
    <rect
       style="fill:#000000;fill-opacity:1;stroke-width:0.942469;stroke-dasharray:none"
       id="rect1892"
       width="300"
       height="300"
       x="156.86423"
       y="-147.46648"
       transform="rotate(45)" />
    <path
       id="path1482"
       style="fill:url(#linearGradient2852);fill-opacity:1;stroke-width:1.2078"
       d="m 106.35367,186.15105 a 30.790877,30.95083 0 0 0 -30.790997,30.95312 30.790877,30.95083 0 0 0 30.790997,30.94922 30.790877,30.95083 0 0 0 30.79102,-30.94922 30.790877,30.95083 0 0 0 -30.79102,-30.95312 z m 187.78125,1.86328 0.2461,58.17578 v -0.33008 l 8.82422,-0.24804 v -47.44727 l 34.56054,-0.41211 0.24414,48.18945 h 8.66211 l 0.40821,-57.51562 z m -70.5,0.006 0.41211,57.74805 53.05469,0.41601 -0.49609,-9.37695 -42.98633,0.25 -0.33008,-15.01758 33.41602,0.24805 -0.082,-9.625 h -33.33399 l 0.16406,-14.76953 43.23633,-0.16602 0.082,-9.54101 z m -72.4375,0.043 0.0586,0.23633 -0.34571,57.7832 9.27344,0.0586 -0.28906,-43.39648 18.89258,6.80859 18.89062,-7.22265 0.63282,43.57422 h 8.8125 l -0.0586,-57.8418 -28.62304,11.83984 z m -44.84375,7.92383 a 21.033766,21.113746 0 0 1 21.03516,21.11718 21.033766,21.113746 0 0 1 -21.03516,21.11329 21.033766,21.113746 0 0 1 -21.033185,-21.11329 21.033766,21.113746 0 0 1 21.033185,-21.11718 z" />
  </g>
</svg>
